<svg xmlns="http://www.w3.org/2000/svg" width="32" height="24"><g fill="none"><path fill="#0052B4" d="M0 .023h32v23.953H0z"/><g fill="#F0F0F0"><path d="M13.965 12.393c.137-.152.272-.304.407-.458-.135.154-.273.305-.41.458h.003zm-2.139 2.549l.685 1.608 1.547-.401-.693 1.603 1.244 1.108-1.549.392.005 1.782-1.239-1.115-1.238 1.115.004-1.782-1.549-.392 1.244-1.108-.692-1.603 1.546.4zm12.366 1.998l.327.766.738-.191-.33.765.593.528-.74.187.003.85-.59-.532-.591.532.002-.85-.739-.187.593-.528-.33-.765.738.191zm-3.039-8.137l.327.767.738-.191-.33.765.592.528-.738.187.002.85-.59-.532-.591.532.002-.85-.739-.187.593-.528-.33-.765.738.191zm3.039-4.649l.327.767.738-.191-.33.765.592.528-.738.187.002.85-.59-.532-.591.532.002-.85-.739-.187.593-.528-.33-.765.738.191zm2.655 3.487l.326.767.738-.191-.33.765.593.528-.739.187.002.85-.59-.532-.59.532.001-.85-.738-.187.593-.528-.33-.765.737.191zm-1.898 4.069l.257.887h.831l-.673.549.257.888-.672-.549-.673.549.257-.888-.673-.549h.832z"/><path d="M16 .023v2.144L13.177 3.93H16v4.165h-3.694L16 10.4V12h-1.668L9.74 9.136V12H6.261V8.59L.796 12H0V9.856l2.823-1.762H0V3.93h3.694L0 1.624v-1.6h1.667l4.594 2.864V.023h3.478v3.409L15.203.023z"/></g><path fill="#D80027" d="M9 .023H7V4.89H0v2.245h7V12h2V7.134h7V4.89H9z"/><path fill="#0052B4" d="M9.74 8.094L16 12v-1.105l-4.49-2.8z"/><path fill="#F0F0F0" d="M9.74 8.094L16 12v-1.105l-4.49-2.8z"/><path d="M9.74 8.094L16 12v-1.105l-4.49-2.8zm-5.25 0L0 10.895V12l6.26-3.906z" fill="#D80027"/><path fill="#0052B4" d="M6.26 3.929L0 .023v1.105l4.49 2.8z"/><path fill="#F0F0F0" d="M6.26 3.929L0 .023v1.105l4.49 2.8z"/><path d="M6.26 3.929L0 .023v1.105l4.49 2.8zm5.25 0L16 1.128V.023L9.74 3.93z" fill="#D80027"/></g></svg>