<svg width="135" height="40" fill="none" xmlns="http://www.w3.org/2000/svg"><path d="M130 40H5c-2.8 0-5-2.2-5-5V5c0-2.8 2.2-5 5-5h125c2.8 0 5 2.2 5 5v30c0 2.8-2.2 5-5 5z" fill="#000"/><path fill-rule="evenodd" clip-rule="evenodd" d="M5 0h125c2.8 0 5 2.3 5 5v30c0 2.8-2.2 5-5 5H5c-2.8 0-5-2.2-5-5V5c0-2.7 2.2-5 5-5zm129.2 5c0-2.3-1.9-4.2-4.2-4.2H5C2.7.8.8 2.7.8 5v30c0 2.3 1.9 4.2 4.2 4.2h125c2.3 0 4.2-1.9 4.2-4.2V5z" fill="#A6A6A6"/><path fill-rule="evenodd" clip-rule="evenodd" d="M46.7 12.2c.5-.5.7-1.2.7-2v-.4h-2.9v.8h2.2c0 .5-.2.9-.5 1.2-.5.5-1 .7-1.7.7-.6 0-1.1-.3-1.6-.7-.5-.4-.7-1-.7-1.7s.2-1.3.7-1.7c.4-.5 1-.7 1.6-.7.7 0 1.2.2 1.6.7l.5-.5c-.2-.3-.5-.5-.9-.7-.4-.2-.8-.3-1.2-.3-.9 0-1.6.3-2.2.9-.6.6-.9 1.3-.9 2.2 0 .9.3 1.6.9 2.2.6.6 1.3.9 2.2.9.9 0 1.6-.3 2.2-.9zm2.6-4.5H52V7h-3.5v6H52v-.8h-2.7v-1.9h2.5v-.7h-2.5V7.7zm6 5.3h-.8V7.7h-1.7V7H57v.7h-1.7V13zm5.4-6h-.8v6h.8V7zm3.3 6h-.7V7.7h-1.7V7h4.1v.7H64V13zm7.4.1c.9 0 1.6-.3 2.2-.9.6-.6.9-1.3.9-2.2 0-.9-.3-1.6-.9-2.2-.6-.6-1.3-.9-2.2-.9-.9 0-1.6.3-2.2.9-.6.6-.9 1.3-.9 2.2 0 .9.3 1.6.9 2.2.6.6 1.3.9 2.2.9zm-1.6-1.4c.4.4 1 .7 1.6.7.6 0 1.2-.2 1.6-.7.4-.4.7-1 .7-1.7s-.2-1.3-.7-1.7c-.4-.4-1-.7-1.6-.7-.6 0-1.2.2-1.6.7-.4.4-.7 1-.7 1.7s.2 1.3.7 1.7zM76.5 7h-.9v6h.7V8.1l3.1 4.9h.8V7h-.8v4.7L76.5 7z" fill="#fff"/><path d="M47.4 9.8h.1v-.1h-.1v.1zm-2.9 0v-.1h-.1v.1h.1zm0 .8h-.1v.1h.1v-.1zm2.2 0h.1v-.1h-.1v.1zm-3.8-2.2l.062.078.009-.007.007-.009L42.9 8.4zm3.2 0l-.078.062.07.088.079-.08-.071-.07zm.5-.5l.07.07.059-.057-.046-.068-.083.055zm-.9-.7l-.045.09.045-.09zm6.3.5v.1h.1v-.1H52zm-2.7 0v-.1h-.1v.1h.1zM52 7h.1v-.1H52V7zm-3.5 0v-.1h-.1V7h.1zm0 6h-.1v.1h.1V13zm3.5 0v.1h.1V13H52zm0-.8h.1v-.1H52v.1zm-2.7 0h-.1v.1h.1v-.1zm0-1.9v-.1h-.1v.1h.1zm2.5 0v.1h.1v-.1h-.1zm0-.7h.1v-.1h-.1v.1zm-2.5 0h-.1v.1h.1v-.1zm5.2 3.4h-.1v.1h.1V13zm.8 0v.1h.1V13h-.1zm-.8-5.3h.1v-.1h-.1v.1zm-1.7 0h-.1v.1h.1v-.1zm0-.7v-.1h-.1V7h.1zM57 7h.1v-.1H57V7zm0 .7v.1h.1v-.1H57zm-1.7 0v-.1h-.1v.1h.1zm4.6-.7v-.1h-.1V7h.1zm.8 0h.1v-.1h-.1V7zm-.8 6h-.1v.1h.1V13zm.8 0v.1h.1V13h-.1zm2.6 0h-.1v.1h.1V13zm.7 0v.1h.1V13H64zm-.7-5.3h.1v-.1h-.1v.1zm-1.7 0h-.1v.1h.1v-.1zm0-.7v-.1h-.1V7h.1zm4.1 0h.1v-.1h-.1V7zm0 .7v.1h.1v-.1h-.1zm-1.7 0v-.1h-.1v.1h.1zm9.6 4.5l.07.07-.07-.07zm0-4.4l.07-.07-.07.07zm-3.8 3.9l.071-.071-.009-.007-.062.078zm3.2 0l-.071-.071-.007.008.078.063zm0-3.4l-.071.071.008.007L73 8.3zm-3.2 0l.071.071.007-.009L69.8 8.3zM75.6 7v-.1h-.1V7h.1zm.9 0l.085-.053-.03-.047H76.5V7zm-.9 6h-.1v.1h.1V13zm.7 0v.1h.1V13h-.1zm0-4.9l.084-.053-.184-.292V8.1h.1zm3.1 4.9l-.085.053.03.047h.055V13zm.8 0v.1h.1V13h-.1zm0-6h.1v-.1h-.1V7zm-.8 0v-.1h-.1V7h.1zm0 4.7l-.085.053.185.3V11.7h-.1zm-32.1-1.5c0 .785-.196 1.455-.67 1.93l.14.14c.526-.525.73-1.255.73-2.07h-.2zm0-.4v.4h.2v-.4h-.2zm-2.8.1h2.9v-.2h-2.9v.2zm.1.7v-.8h-.2v.8h.2zm2.1-.1h-2.2v.2h2.2v-.2zm-.43 1.37c.317-.316.53-.74.53-1.27h-.2c0 .47-.188.846-.47 1.13l.14.14zm-1.77.73c.36 0 .673-.051.963-.17.29-.118.55-.302.808-.56l-.142-.14a2.246 2.246 0 01-.742.515c-.26.106-.547.155-.887.155v.2zm-1.663-.722c.505.403 1.027.722 1.663.722v-.2c-.565 0-1.042-.281-1.538-.678l-.125.156zM42.1 10.1c0 .718.206 1.353.737 1.778l.125-.156c-.468-.375-.662-.94-.662-1.622h-.2zm.737-1.778c-.531.425-.737 1.06-.737 1.778h.2c0-.682.194-1.247.662-1.622l-.125-.156zM44.5 7.6c-.621 0-1.254.207-1.678.738l.156.124c.376-.47.943-.662 1.522-.662v-.2zm1.678.738c-.423-.529-.954-.738-1.678-.738v.2c.676 0 1.145.19 1.522.662l.156-.124zm.351-.509l-.5.5.142.142.5-.5-.142-.142zm-.874-.54c.396.198.676.389.862.666l.166-.11c-.215-.323-.534-.532-.938-.734l-.09.178zM44.5 7c.383 0 .767.096 1.155.29l.09-.18A2.762 2.762 0 0044.5 6.8V7zm-2.13.87c.582-.58 1.256-.87 2.13-.87v-.2c-.927 0-1.652.31-2.27.93l.14.14zM41.5 10c0-.874.29-1.548.87-2.13l-.14-.14c-.62.618-.93 1.344-.93 2.27h.2zm.87 2.13c-.58-.582-.87-1.257-.87-2.13h-.2c0 .927.31 1.652.93 2.27l.14-.14zm2.13.87c-.874 0-1.548-.29-2.13-.87l-.14.14c.618.62 1.343.93 2.27.93V13zm2.13-.87c-.582.58-1.257.87-2.13.87v.2c.926 0 1.652-.31 2.27-.93l-.14-.14zM52 7.6h-2.7v.2H52v-.2zm-.1-.6v.7h.2V7h-.2zm-3.4.1H52v-.2h-3.5v.2zm.1 5.9V7h-.2v6h.2zm3.4-.1h-3.5v.2H52v-.2zm-.1-.7v.8h.2v-.8h-.2zm-2.6.1H52v-.2h-2.7v.2zm-.1-2v1.9h.2v-1.9h-.2zm2.6-.1h-2.5v.2h2.5v-.2zm-.1-.6v.7h.2v-.7h-.2zm-2.4.1h2.5v-.2h-2.5v.2zm-.1-2v1.9h.2V7.7h-.2zm5.3 5.4h.8v-.2h-.8v.2zm-.1-5.4V13h.2V7.7h-.2zm-1.6.1h1.7v-.2h-1.7v.2zm-.1-.8v.7h.2V7h-.2zm4.3-.1h-4.2v.2H57v-.2zm.1.8V7h-.2v.7h.2zm-1.8.1H57v-.2h-1.7v.2zm.1 5.2V7.7h-.2V13h.2zm4.5-5.9h.8v-.2h-.8v.2zM60 13V7h-.2v6h.2zm.7-.1h-.8v.2h.8v-.2zM60.6 7v6h.2V7h-.2zm2.7 6.1h.7v-.2h-.7v.2zm-.1-5.4V13h.2V7.7h-.2zm-1.6.1h1.7v-.2h-1.7v.2zm-.1-.8v.7h.2V7h-.2zm4.2-.1h-4.1v.2h4.1v-.2zm.1.8V7h-.2v.7h.2zm-1.8.1h1.7v-.2H64v.2zm.1 5.2V7.7h-.2V13h.2zm9.43-.87c-.582.58-1.257.87-2.13.87v.2c.926 0 1.652-.31 2.27-.93l-.14-.14zM74.4 10c0 .873-.29 1.548-.87 2.13l.14.14c.62-.618.93-1.343.93-2.27h-.2zm-.87-2.13c.58.582.87 1.256.87 2.13h.2c0-.926-.31-1.652-.93-2.27l-.14.14zM71.4 7c.873 0 1.548.29 2.13.87l.14-.14c-.618-.62-1.344-.93-2.27-.93V7zm-2.13.87c.582-.58 1.256-.87 2.13-.87v-.2c-.927 0-1.652.31-2.27.93l.14.14zM68.4 10c0-.874.29-1.548.87-2.13l-.14-.14c-.62.618-.93 1.344-.93 2.27h.2zm.87 2.13c-.58-.582-.87-1.257-.87-2.13h-.2c0 .927.31 1.652.93 2.27l.14-.14zm2.13.87c-.874 0-1.548-.29-2.13-.87l-.14.14c.618.62 1.343.93 2.27.93V13zm0-.7c-.569 0-1.145-.286-1.53-.67l-.14.14c.414.416 1.039.73 1.67.73v-.2zm1.522-.663c-.376.47-.943.663-1.522.663v.2c.62 0 1.254-.207 1.678-.738l-.156-.125zM73.6 10a2.32 2.32 0 01-.67 1.63l.14.14c.418-.416.73-1.041.73-1.77h-.2zm-.663-1.622c.469.375.663.94.663 1.622h.2c0-.718-.206-1.353-.738-1.778l-.125.156zM71.4 7.7c.569 0 1.144.286 1.53.67l.14-.14c-.414-.416-1.039-.73-1.67-.73v.2zm-1.522.662c.376-.47.943-.662 1.522-.662v-.2c-.621 0-1.254.207-1.678.738l.156.124zM69.2 10c0-.671.288-1.246.67-1.63l-.14-.14A2.513 2.513 0 0069 10h.2zm.662 1.622c-.468-.375-.662-.94-.662-1.622H69c0 .718.206 1.353.737 1.778l.125-.156zM75.6 7.1h.9v-.2h-.9v.2zm.1 5.9V7h-.2v6h.2zm.6-.1h-.7v.2h.7v-.2zm-.1-4.8V13h.2V8.1h-.2zm3.284 4.847l-3.1-4.9-.169.106 3.1 4.9.17-.107zm.716-.047h-.8v.2h.8v-.2zM80.1 7v6h.2V7h-.2zm-.7.1h.8v-.2h-.8v.2zm.1 4.6V7h-.2v4.7h.2zm-3.085-4.647l2.9 4.7.17-.105-2.9-4.7-.17.104z" fill="#fff"/><path fill-rule="evenodd" clip-rule="evenodd" d="M47.7 23.1v1.8H52c-.1 1-.5 1.8-1 2.3-.6.6-1.6 1.3-3.3 1.3-2.7 0-4.7-2.1-4.7-4.8 0-2.7 2.1-4.8 4.7-4.8 1.4 0 2.5.6 3.3 1.3l1.3-1.3c-1.1-1-2.5-1.8-4.5-1.8-3.6 0-6.7 3-6.7 6.6 0 3.6 3.1 6.6 6.7 6.6 2 0 3.4-.6 4.6-1.9 1.2-1.2 1.6-2.9 1.6-4.2 0-.4 0-.8-.1-1.1h-6.2zm11.1-1.3c-2.4 0-4.3 1.8-4.3 4.3 0 2.4 1.9 4.3 4.3 4.3s4.3-1.8 4.3-4.3c0-2.6-1.9-4.3-4.3-4.3zm5 4.3c0-2.5 1.9-4.3 4.3-4.3s4.3 1.7 4.3 4.3c0 2.5-1.9 4.3-4.3 4.3s-4.3-1.9-4.3-4.3zm1.9-.1c0 1.5 1.1 2.6 2.4 2.6 1.3 0 2.4-1.1 2.4-2.6 0-1.6-1.1-2.6-2.4-2.6-1.3 0-2.4 1.1-2.4 2.6zm-9.3 0c0 1.5 1.1 2.6 2.4 2.6 1.3 0 2.4-1.1 2.4-2.6 0-1.6-1.1-2.6-2.4-2.6-1.3 0-2.4 1.1-2.4 2.6zm33.1-4.2c2.2 0 3.2 1.7 3.6 2.7l.2.5-5.7 2.4c.5.9 1.1 1.3 2.1 1.3s1.6-.5 2.1-1.2l1.4 1c-.4.7-1.6 1.9-3.5 1.9-2.4 0-4.2-1.9-4.2-4.3 0-2.6 1.8-4.3 4-4.3zm-2.2 4.1c0-1.6 1.3-2.5 2.2-2.5.7 0 1.4.4 1.6.9l-3.8 1.6zM84.5 30h-1.9V17.5h1.9V30zm-4.9-7.3c-.5-.5-1.3-1-2.3-1-2.1 0-4.1 1.9-4.1 4.3s1.9 4.2 4.1 4.2c1 0 1.8-.5 2.2-1h.1v.6c0 1.6-.9 2.5-2.3 2.5-1.1 0-1.9-.8-2.1-1.5l-1.6.7c.5 1.1 1.7 2.5 3.8 2.5 2.2 0 4-1.3 4-4.4V22h-1.8v.7zM75 26c0 1.5 1.1 2.6 2.4 2.6 1.3 0 2.3-1.1 2.3-2.6s-1-2.6-2.3-2.6c-1.3 0-2.4 1.1-2.4 2.6zm26.8-8.5h-4.5V30h1.9v-4.7h2.6c2.1 0 4.1-1.5 4.1-3.9s-2-3.9-4.1-3.9zm-2.6 6h2.7c1.3 0 2.1-1.1 2.2-2.2 0-.9-.8-2.1-2.2-2.1h-2.7v4.3zm14.2-1.8c-1.4 0-2.8.6-3.3 1.9l1.7.7c.4-.7 1-.9 1.7-.9 1 0 1.9.6 2 1.6v.1c-.3-.2-1.1-.5-1.9-.5-1.8 0-3.6 1-3.6 2.8 0 1.7 1.5 2.8 3.1 2.8 1.3 0 1.9-.6 2.4-1.2h.1v1h1.8v-4.8c-.2-2.2-1.9-3.5-4-3.5zm-1.7 5.8c0 .8.9 1.1 1.5 1.1 1 0 2-.8 2.2-2l-.149-.06c-.436-.178-.832-.34-1.551-.34-.9 0-2 .3-2 1.3zm12-5.5l-2.1 5.4h-.1l-2.2-5.4h-2l3.3 7.6-1.9 4.2h1.9l5.1-11.8h-2zm-14.9 8h-1.9V17.5h1.9V30z" fill="#fff"/><path d="M10.4 7.5c-.3.3-.4.8-.4 1.4V31c0 .6.2 1.1.5 1.4l.1.1L23 20.1v-.2L10.4 7.5z" fill="url(#paint0_linear)"/><path d="M27 24.3l-4.1-4.1v-.3l4.1-4.1.1.1 4.9 2.8c1.4.8 1.4 2.1 0 2.9l-5 2.7z" fill="url(#paint1_linear)"/><path d="M27.1 24.2L22.9 20 10.4 32.5c.5.5 1.2.5 2.1.1l14.6-8.4z" fill="url(#paint2_linear)"/><path d="M27.1 15.8L12.5 7.5c-.9-.5-1.6-.4-2.1.1L22.9 20l4.2-4.2z" fill="url(#paint3_linear)"/><path opacity=".2" d="M27 24.1l-14.5 8.2c-.8.5-1.5.4-2 0l-.1.1.1.1c.5.4 1.2.5 2 0L27 24.1z" fill="#000"/><path opacity=".12" fill-rule="evenodd" clip-rule="evenodd" d="M27 24.1l5-2.8c.6-.4 1-.8 1-1.3 0 .5-.3 1-1 1.4l-4.9 2.8-.1-.1zm-16.982 7.207c.04.418.153.764.382.993h.01c.029.035.059.069.09.1v-.1h-.09c-.2-.245-.344-.589-.392-.993zm0 0A4.276 4.276 0 0110 30.9v.1c0 .106.006.208.018.307z" fill="#000"/><path opacity=".25" d="M12.5 7.6L32 18.7c.6.4 1 .8 1 1.3 0-.5-.3-1-1-1.4L12.5 7.5c-1.4-.8-2.5-.2-2.5 1.4V9c0-1.5 1.1-2.2 2.5-1.4z" fill="#fff"/><defs><linearGradient id="paint0_linear" x1="17.437" y1="-7.428" x2="-2.431" y2="-2.055" gradientUnits="userSpaceOnUse"><stop stop-color="#00A0FF"/><stop offset=".007" stop-color="#00A1FF"/><stop offset=".26" stop-color="#00BEFF"/><stop offset=".512" stop-color="#00D2FF"/><stop offset=".76" stop-color="#00DFFF"/><stop offset="1" stop-color="#00E3FF"/></linearGradient><linearGradient id="paint1_linear" x1="33.834" y1="9.869" x2="9.637" y2="9.869" gradientUnits="userSpaceOnUse"><stop stop-color="#FFE000"/><stop offset=".409" stop-color="#FFBD00"/><stop offset=".775" stop-color="orange"/><stop offset="1" stop-color="#FF9C00"/></linearGradient><linearGradient id="paint2_linear" x1="10.083" y1="13.514" x2="-5.882" y2="40.318" gradientUnits="userSpaceOnUse"><stop stop-color="#FF3A44"/><stop offset="1" stop-color="#C31162"/></linearGradient><linearGradient id="paint3_linear" x1=".682" y1="4.08" x2="7.755" y2="16.066" gradientUnits="userSpaceOnUse"><stop stop-color="#32A071"/><stop offset=".069" stop-color="#2DA771"/><stop offset=".476" stop-color="#15CF74"/><stop offset=".801" stop-color="#06E775"/><stop offset="1" stop-color="#00F076"/></linearGradient></defs></svg>