<svg width="62" height="64" fill="none" xmlns="http://www.w3.org/2000/svg"><path fill-rule="evenodd" clip-rule="evenodd" d="M61.072 34.193h-1.25c-.12 0-2.914-.026-5.044-2.162l-6.26-6.302c-.446-.446-.858-.674-1.228-.674s-.78.226-1.225.67l-1.877 1.893a.918.918 0 01-1.31 0s-3.133-3.15-4.387-4.408c-.442-.448-.858-.675-1.224-.675-.37 0-.782.227-1.225.672l-1.882 1.89a.944.944 0 01-1.306 0l-5.613-5.641-8.116 8.163a.93.93 0 01-.658.274.912.912 0 01-.651-.274l-1.883-1.893c-.883-.89-1.558-.89-2.448 0L7.22 32.03c-2.127 2.136-4.923 2.162-5.04 2.162H.926A.93.93 0 010 33.26c0-.513.413-.93.926-.93H2.18c.016 0 2.157-.04 3.73-1.617l6.266-6.301c1.605-1.617 3.462-1.619 5.071 0l1.22 1.232 8.12-8.163a.92.92 0 011.308 0l5.612 5.642 1.224-1.23c.805-.81 1.656-1.22 2.537-1.22.877 0 1.729.41 2.532 1.22.897.896 2.746 2.757 3.732 3.75l1.225-1.231c.803-.807 1.654-1.218 2.534-1.218.879 0 1.73.408 2.536 1.218l6.264 6.3c1.59 1.599 3.711 1.618 3.732 1.618h1.25c.514 0 .928.417.928.93a.93.93 0 01-.928.933z" fill="#0F1420"/><path fill-rule="evenodd" clip-rule="evenodd" d="M61.072 28.455h-1.25c-.12 0-2.914-.025-5.044-2.163l-6.263-6.3c-.886-.892-1.56-.892-2.45 0l-1.877 1.89c-.35.35-.964.35-1.31 0l-4.387-4.411c-.892-.896-1.559-.899-2.45 0l-1.881 1.89a.922.922 0 01-1.306.002l-5.613-5.644-8.116 8.163a.923.923 0 01-1.309 0l-1.883-1.89c-.883-.892-1.562-.892-2.448 0l-6.266 6.3c-2.127 2.138-4.923 2.163-5.04 2.163H.926a.927.927 0 01-.926-.93c0-.517.413-.932.926-.932H2.18c.016 0 2.157-.037 3.73-1.617l6.266-6.303c1.607-1.612 3.462-1.616 5.071 0l1.22 1.232 8.12-8.162a.922.922 0 011.308 0l5.612 5.644 1.224-1.233c1.611-1.622 3.457-1.619 5.069 0l3.732 3.75 1.225-1.23c1.605-1.613 3.46-1.617 5.07 0l6.264 6.302c1.57 1.58 3.714 1.617 3.735 1.617h1.247c.514 0 .928.415.928.933 0 .513-.414.93-.928.93z" fill="#0F1420"/><path fill-rule="evenodd" clip-rule="evenodd" d="M61.08 22.413l-1.251.012c-.115 0-2.913.005-5.06-2.112-2.16-2.125-5.49-5.41-6.33-6.235-.897-.884-1.573-.878-2.45.023l-1.86 1.91a.928.928 0 01-.65.281.927.927 0 01-.658-.267l-4.43-4.365c-.896-.885-1.573-.878-2.453.024l-1.858 1.909a.952.952 0 01-1.31.014l-5.667-5.585-8.035 8.244a.926.926 0 01-1.309.015l-1.899-1.874c-.894-.883-1.573-.876-2.45.025l-4.65 4.773-1.552 1.59C5.1 22.957 2.304 23.008 2.19 23.011l-1.251.011a.927.927 0 01-.938-.92.93.93 0 01.917-.942l1.25-.01c.02-.004 2.16-.062 3.718-1.657l1.55-1.591c1.903-1.95 4.014-4.118 4.652-4.772 1.59-1.634 3.444-1.651 5.07-.052l1.233 1.218 8.038-8.243a.92.92 0 011.308-.013l5.668 5.584 1.212-1.242c1.59-1.634 3.449-1.652 5.069-.053l3.77 3.714 1.212-1.243c1.589-1.631 3.444-1.652 5.07-.053.835.829 4.167 4.11 6.326 6.237 1.607 1.583 3.726 1.582 3.749 1.579l1.252-.012a.928.928 0 01.934.923.928.928 0 01-.919.939z" fill="#0F1420"/><path fill-rule="evenodd" clip-rule="evenodd" d="M61.072 16.982h-1.25c-.12 0-2.914-.025-5.044-2.162l-6.26-6.301c-.448-.446-.86-.672-1.228-.672-.37.001-.78.226-1.225.672a500.545 500.545 0 00-1.877 1.889.92.92 0 01-1.31 0S39.745 7.258 38.49 6c-.442-.449-.858-.672-1.224-.672-.37 0-.782.223-1.225.67l-1.878 1.89a.923.923 0 01-1.31 0l-5.613-5.64-8.116 8.16a.917.917 0 01-1.309 0l-1.883-1.89c-.883-.892-1.558-.893-2.448 0L7.22 14.82c-2.127 2.137-4.923 2.162-5.04 2.162H.926A.929.929 0 010 16.05c0-.514.413-.93.926-.93H2.18c.016 0 2.157-.04 3.73-1.619l6.266-6.297c.805-.81 1.655-1.22 2.534-1.22.88 0 1.732.41 2.537 1.22l1.22 1.229 8.12-8.16a.923.923 0 011.308 0l5.612 5.64 1.224-1.231c.805-.809 1.656-1.219 2.537-1.219.877.003 1.729.41 2.532 1.219.897.898 2.746 2.757 3.732 3.75.305-.302.712-.715 1.228-1.228.8-.81 1.651-1.22 2.531-1.22.879 0 1.73.41 2.536 1.22l6.264 6.297c1.59 1.6 3.711 1.618 3.732 1.618h1.25c.514 0 .928.417.928.93a.93.93 0 01-.928.933zm-2.103 28.207c.728 0 1.063-.182 1.204-.331.151-.15.333-.484.333-1.216 0-.725-.18-1.06-.33-1.212-.149-.148-.487-.332-1.207-.332-.715 0-1.052.176-1.215.333-.144.154-.321.486-.321 1.211 0 .74.18 1.065.328 1.213.15.152.483.334 1.208.334zm-22.266 8.903c0-.66.322-1.055 1.346-1.055h3.862V55.7H38.05c-1.024 0-1.346-.633-1.346-1.288v-.32zm4.206-7.149H35.83c-.314 0-.96.389-.96 1.076 0 1.15.96 1.048 1.266 1.048h4.773c.35 0 .722.392.878.677.23.42.121.83.124 1.262H38.05c-3.395 0-3.758 1.998-3.758 2.992v.318c0 .99.363 3.3 3.758 3.3h6.3v-6.653c-.026-2.553-1.279-4.02-3.44-4.02zM3.906 54.286c0-.66.324-1.055 1.349-1.055h3.86v2.662h-3.86c-1.025 0-1.349-.633-1.349-1.288v-.32zm4.202-7.148h-5.08c-.311 0-.955.389-.955 1.076 0 1.149.956 1.048 1.27 1.048h4.768c.348 0 .724.391.877.677.231.42.123.83.126 1.262h-3.86c-3.394 0-3.76 1.998-3.76 2.992v.318c0 .99.366 3.3 3.76 3.3h6.296v-6.653c-.022-2.553-1.277-4.02-3.442-4.02zm45.497-.214l-2.267-.038c-2.543 0-3.448 1.866-3.448 3.458v7.273h2.442v-7.273c0-.6.22-1.231 1.052-1.231l2.35-.016c.312 0 1.176-.136 1.183-.983.008-.968-.997-1.19-1.312-1.19zM24.057 49.17h2.59c1.565 0 2.591.399 2.591 2.23v1.8c0 1.827-1.026 2.33-2.592 2.33h-2.589v-6.36zm2.589-2.186h-5.025v16.109c0 .312.253.907 1.217.907.965 0 1.219-.595 1.219-.907v-5.476h2.589c1.24 0 5.032 0 5.032-4.418v-1.8c-.004-4.415-3.791-4.415-5.032-4.415zm-10.272-6.878c-.963 0-1.22.592-1.22.906v16.605h2.441V41.012c0-.314-.25-.906-1.22-.906zm42.596 6.837c-.966 0-1.22.595-1.22.907v9.766h2.44V47.85c0-.312-.255-.907-1.22-.907z" fill="#0F1420"/></svg>