<svg width="113" height="112" fill="none" xmlns="http://www.w3.org/2000/svg"><path d="M98.483 58.051c-7.024-6.251-7.935-15.564-7.935-15.564-.715-7.294 2.146-13.024 3.252-14.913.13-.195.26-.39.39-.651v-.065c1.301-2.214 2.017-4.82 2.017-7.62 0-8.4-6.83-15.238-15.22-15.238a15.11 15.11 0 00-12.813 7.033l-.065-.065s-4.357 9.117-15.024 13.546c-8.195 3.386-15.61 2.149-18.732 1.432a21.785 21.785 0 00-7.74-1.433C14.387 24.514 4.5 34.413 4.5 46.656s9.886 22.141 22.114 22.141c1.69 0 3.382-.195 4.943-.586v.066c8.455-1.303 13.333 2.8 13.333 2.8a18.511 18.511 0 017.09 10.55C53.02 96.343 65.247 108 80.206 108c15.61 0 28.292-12.699 28.292-28.328.065-8.596-3.837-16.41-10.016-21.62z" fill="#ECECED"/><path d="M80.272 98.232c10.165 0 18.406-8.251 18.406-18.43 0-10.178-8.24-18.43-18.406-18.43-10.166 0-18.407 8.252-18.407 18.43 0 10.178 8.241 18.43 18.407 18.43z" fill="#9BD024"/><path d="M45.026 84a3.715 3.715 0 01-2.9-1.395L29.438 67.437c-1.39-1.638-1.208-4.187.363-5.643l35.645-32.823c.725-.607 1.57-.971 2.538-.971 1.087 0 2.174.485 2.9 1.395L83.57 44.563c.664.79 1.027 1.82.906 2.913-.06 1.092-.544 2.063-1.33 2.73L47.564 83.029a3.771 3.771 0 01-2.538.971z" stroke="#0F1420" stroke-width="1.5" stroke-miterlimit="10"/><path d="M57.98 68.83c-3.793-.12-7.647-2.167-10.357-5.54-4.637-5.902-4.517-14.032.3-18.127 1.868-1.626 4.277-2.469 6.866-2.348 3.794.12 7.648 2.168 10.358 5.54 4.638 5.902 4.517 14.032-.3 18.127-1.868 1.566-4.216 2.409-6.866 2.349z" stroke="#0F1420" stroke-width="1.5" stroke-miterlimit="10"/><path d="M78.337 46.85l-2.65 2.409M37.205 61.303l-3.192 2.951" stroke="#0F1420" stroke-width="1.5" stroke-miterlimit="10" stroke-linecap="round"/></svg>