<svg width="113" height="112" fill="none" xmlns="http://www.w3.org/2000/svg"><path fill-rule="evenodd" clip-rule="evenodd" d="M101.003 66.495l.004-.003c-10.82-10.905-9.403-23.605-8.935-26.378a29.23 29.23 0 00.83-6.908C92.902 17.076 79.826 4 63.696 4S34.489 17.076 34.489 33.206c0 .916.048 1.821.13 2.715.347 8.946-7.148 11.785-9.492 12.451C13.612 49.114 4.5 58.683 4.5 70.385c0 12.187 9.879 22.066 22.065 22.066 4.47 0 8.628-1.334 12.103-3.618l.001.003c6.35-4.392 13.653-2.19 13.653-2.19 7.78 2.049 10.897 8.646 10.897 8.646l.002-.002C67.275 102.855 75.255 108 84.438 108c13.289 0 24.062-10.772 24.062-24.062 0-6.868-2.882-13.059-7.497-17.443z" fill="#ECECED"/><path d="M64.03 50.631c10.313 0 18.673-8.36 18.673-18.672 0-10.313-8.36-18.673-18.673-18.673-10.313 0-18.673 8.36-18.673 18.672 0 10.313 8.36 18.673 18.673 18.673z" fill="#9BD024"/><path d="M57.494 28h-1.047c-1.43 0-6.38.289-9.618 3.848-2.286 2.5-3.238 6.06-2.762 10.581.762 8.08 3.523 12.698 5.618 15.199 2.762 3.27 5.809 4.425 7.809 4.425 4.475 0 12.379-7.119 12.379-21.163 0-.481.095-5.868-3.428-9.523C64.35 29.154 61.303 28 57.494 28z" stroke="#0F1420" stroke-width="1.5" stroke-miterlimit="10"/><path d="M84.5 83.722v-1.238c-.307-12.382-5.007-14.343-5.518-14.55L66.924 64.53c-.307-.103-.613-.103-.92-.103-.92 0-1.635.516-1.941.929-.818.928-5.825 9.08-7.358 11.763l-6.642-11.247c-.613-.723-1.43-1.135-2.35-1.135-.511 0-.92.103-1.124.206-.614.206-6.847 2.064-11.956 3.199-6.234 1.341-6.133 13.382-6.133 14.62v1.24" stroke="#0F1420" stroke-width="1.5" stroke-miterlimit="10" stroke-linecap="round"/></svg>