<svg xmlns="http://www.w3.org/2000/svg" width="32" height="24"><g fill="none"><path fill="#0052B4" d="M0 .023h32v23.953H0z"/><path d="M16 5.07l.372 1.103h1.205l-.975.681.373 1.103L16 7.275l-.975.682.373-1.103-.975-.681h1.205zm-4.95 1.973l1.074.526.852-.82-.189 1.146 1.074.526-1.19.182-.189 1.145-.547-1.033-1.19.181.852-.82zM9 11.807l1.146-.359v-1.16l.708.939L12 10.869l-.708.938.708.938-1.146-.359-.708.938v-1.159zm2.05 4.763l.547-1.033-.852-.82 1.19.182.547-1.034.189 1.146 1.19.181-1.074.527.189 1.145-.852-.82zM16 18.543l-.372-1.102h-1.205l.975-.682-.373-1.103.975.682.975-.682-.373 1.103.975.682h-1.205zm4.95-1.973l-1.074-.526-.852.82.189-1.146-1.074-.526 1.19-.181.189-1.146.547 1.034 1.19-.182-.852.82zM23 11.807l-1.146.358v1.16l-.708-.939-1.146.359.708-.938-.708-.938 1.146.358.708-.938v1.16zm-2.05-4.764l-.547 1.033.852.82-1.19-.181-.547 1.033-.189-1.145-1.19-.182 1.074-.526-.189-1.146.852.82z" fill="#FFDA44"/></g></svg>