<svg width="113" height="112" fill="none" xmlns="http://www.w3.org/2000/svg"><path fill-rule="evenodd" clip-rule="evenodd" d="M98.478 65.045l.02-.014c-4.435-3.304-5.349-8.038-5.349-8.038-1.597-6.9 1.254-11.149 3.06-13.047.445-.365.871-.75 1.286-1.148l.031-.022-.004-.003c4.266-4.1 6.926-9.856 6.926-16.237C104.448 14.09 94.343 4 81.878 4c-10.206 0-18.826 6.766-21.616 16.05l-.053-.032c-2.233 6.242-7.712 8.86-7.712 8.86-6.838 3.454-12.584 1.209-12.584 1.209l.006.07a27.182 27.182 0 00-8.257-1.28C16.662 28.877 4.5 41.021 4.5 56c0 14.98 12.161 27.122 27.162 27.122a27.08 27.08 0 0012.636-3.114c6.003-2.602 10.75.238 10.75.238 4.463 2.338 5.928 6.024 6.402 7.91.064.393.138.784.22 1.171a.252.252 0 01.003.029l.004-.002C63.975 100.011 73.462 108 84.821 108 97.9 108 108.5 97.414 108.5 84.354c0-7.977-3.961-15.027-10.022-19.31z" fill="#ECECED"/><path d="M31.8 71.6c8.616 0 15.6-6.984 15.6-15.6s-6.984-15.6-15.6-15.6c-8.615 0-15.6 6.984-15.6 15.6 0 8.615 6.985 15.6 15.6 15.6z" fill="#9BD024"/><path d="M62.1 55.729c.09-4.606 4.155-8.22 8.761-8.22H84.41V30.8c0-1.535-1.265-2.8-2.8-2.8H31.3a2.814 2.814 0 00-2.8 2.8v50.4c0 1.535 1.265 2.8 2.8 2.8h50.4c1.535 0 2.8-1.264 2.8-2.8V64.4H70.41c-4.697 0-8.49-3.884-8.31-8.671z" stroke="#0F1420" stroke-width="1.5" stroke-miterlimit="10" stroke-linecap="round"/><path d="M70.68 60.516a4.516 4.516 0 100-9.032 4.516 4.516 0 000 9.032z" stroke="#0F1420" stroke-width="1.5" stroke-miterlimit="10"/></svg>