<svg width="40" height="40" fill="none" xmlns="http://www.w3.org/2000/svg"><rect width="40" height="40" rx="20" fill="#9BD024"/><path d="M29 14.657a7.644 7.644 0 01-2.12.557 3.58 3.58 0 001.623-1.955 7.598 7.598 0 01-2.346.857A3.765 3.765 0 0023.462 13c-2.04 0-3.693 1.583-3.693 3.534 0 .277.033.547.096.806-3.07-.148-5.79-1.555-7.612-3.693a3.402 3.402 0 00-.5 1.777c0 1.226.652 2.308 1.643 2.941a3.81 3.81 0 01-1.673-.441v.044c0 1.712 1.273 3.14 2.962 3.466a3.875 3.875 0 01-1.667.06c.47 1.404 1.834 2.426 3.45 2.454a7.621 7.621 0 01-4.587 1.514c-.298 0-.592-.017-.881-.05A10.795 10.795 0 0016.661 27c6.793 0 10.507-5.385 10.507-10.056 0-.153-.003-.306-.01-.457A7.336 7.336 0 0029 14.657z" fill="#0F1420"/></svg>